<svg width="149" height="48" viewBox="0 0 149 48" fill="none" xmlns="http://www.w3.org/2000/svg">
<g clip-path="url(#clip0_2_2693)">
<path fill-rule="evenodd" clip-rule="evenodd" d="M67.7519 30.1784C66.754 28.5591 65.1477 28.3216 63.6009 28.3001C61.9946 28.3001 59.4498 28.8926 59.4498 31.1068C59.4498 32.8652 61.3293 33.2802 63.6389 33.7168C66.2811 34.2302 69.0231 34.7052 69.0231 37.6894C69.0041 40.8128 65.8914 41.5637 63.6009 41.5637C61.4671 41.5637 59.0388 40.6737 57.9814 38.5602L58.92 38.0853C59.7611 39.7645 61.9162 40.5969 63.5985 40.5969C65.2808 40.5969 67.9634 40.1219 67.9634 37.6726C67.9824 35.5976 65.7132 35.1418 63.4607 34.7076C60.9539 34.2134 58.3901 33.7 58.3901 31.15C58.3307 28.2257 61.346 27.3165 63.5985 27.3165C65.5564 27.3165 67.2601 27.6332 68.6097 29.6674L67.7495 30.1808L67.7519 30.1784Z" fill="white"/>
<path fill-rule="evenodd" clip-rule="evenodd" d="M73.8965 28.8158C74.0343 27.6308 75.1487 27.1942 76.0896 27.6691L76.8927 28.1033C77.3632 28.3216 77.9311 28.2617 78.0879 27.59L78.7532 27.8083C78.6344 29.0341 77.501 29.4299 76.5601 28.955L75.7569 28.5208C75.2865 28.3025 74.7186 28.3816 74.5618 29.0341L73.8965 28.8158ZM72.1334 36.4636C72.1334 38.9153 73.8965 40.5561 76.0872 40.5561C81.4714 40.5561 81.4714 32.3926 76.0872 32.3926C73.8941 32.3926 72.1334 34.0119 72.1334 36.4636ZM81.001 31.5818V41.3454H80.041V39.2703C79.1025 40.7912 77.6531 41.5037 76.0872 41.5037C73.3856 41.5037 71.1735 39.4478 71.1735 36.4636C71.1735 33.4793 73.3856 31.4642 76.0872 31.4642C77.6531 31.4642 79.2403 32.1959 80.041 33.7168V31.5818H81.001Z" fill="white"/>
<path fill-rule="evenodd" clip-rule="evenodd" d="M92.0427 36.4852C92.0427 33.9543 90.2606 32.3159 88.0699 32.3159C85.8791 32.3159 84.097 33.9567 84.097 36.4852C84.097 39.0136 85.8791 40.537 88.0699 40.537C90.2606 40.537 92.0427 39.016 92.0427 36.4852ZM83.1561 36.4852C83.1561 33.381 85.3492 31.4043 88.0699 31.4043C90.7905 31.4043 92.9836 33.381 92.9836 36.4852C92.9836 39.5894 90.7905 41.4845 88.0699 41.4845C85.3492 41.4845 83.1561 39.587 83.1561 36.4852Z" fill="white"/>
<path fill-rule="evenodd" clip-rule="evenodd" d="M101.808 28.4992V35.5952H106.763C111.325 35.5952 111.325 28.4992 106.763 28.4992H101.808ZM101.808 36.5643V41.3478H100.751V27.5132H106.76C112.712 27.5132 112.712 36.5643 106.76 36.5643H101.806H101.808Z" fill="white"/>
<path fill-rule="evenodd" clip-rule="evenodd" d="M113.397 36.4636C113.397 38.9153 115.16 40.5561 117.35 40.5561C122.735 40.5561 122.735 32.3926 117.35 32.3926C115.157 32.3926 113.397 34.0119 113.397 36.4636ZM122.264 31.5818V41.3454H121.304V39.2703C120.366 40.7912 118.916 41.5037 117.35 41.5037C114.649 41.5037 112.437 39.4478 112.437 36.4636C112.437 33.4793 114.649 31.4642 117.35 31.4642C118.916 31.4642 120.501 32.1959 121.304 33.7168V31.5818H122.264Z" fill="white"/>
<path fill-rule="evenodd" clip-rule="evenodd" d="M132.189 41.3454V39.587C131.445 40.9304 130.096 41.4845 128.744 41.5037C126.159 41.5037 124.379 39.9036 124.379 37.1953V31.5626H125.339V37.1761C125.339 39.3903 126.688 40.5753 128.784 40.5561C130.78 40.537 132.17 39.0136 132.17 36.9985V31.5626H133.13V41.3454H132.189Z" fill="white"/>
<path d="M136.613 27.5108H135.653V41.3454H136.613V27.5108Z" fill="white"/>
<path fill-rule="evenodd" clip-rule="evenodd" d="M147.731 36.4852C147.731 33.9543 145.949 32.3159 143.758 32.3159C141.568 32.3159 139.786 33.9567 139.786 36.4852C139.786 39.0136 141.568 40.537 143.758 40.537C145.949 40.537 147.731 39.016 147.731 36.4852ZM138.845 36.4852C138.845 33.381 141.038 31.4043 143.758 31.4043C146.479 31.4043 148.672 33.381 148.672 36.4852C148.672 39.5894 146.479 41.4845 143.758 41.4845C141.038 41.4845 138.845 39.587 138.845 36.4852Z" fill="white"/>
<path fill-rule="evenodd" clip-rule="evenodd" d="M67.6378 19.46C65.8249 19.46 65.4138 16.6485 65.4138 16.6485H71.0166L71.9006 19.46H67.6378Z" fill="white"/>
<path fill-rule="evenodd" clip-rule="evenodd" d="M79.8367 10.9583V11.3541H82.9256V13.7602H79.8153V18.6444C79.8153 19.7215 80.407 20.2493 81.2695 20.2493C81.7019 20.2493 82.2009 20.1126 82.6096 19.9062L83.3818 22.2908C82.5882 22.6122 81.9277 22.749 81.0889 22.773C78.6582 22.8641 77.0686 21.4655 77.0686 18.6468V13.7626H74.9776V11.3565H77.0686V8.44421C78.5489 8.28588 79.8391 9.45655 79.8391 10.9583H79.8367Z" fill="white"/>
<path fill-rule="evenodd" clip-rule="evenodd" d="M87.1527 16.9724C87.1527 19.1266 88.6282 20.4124 90.4673 20.4124C94.8275 20.4124 94.8275 13.5563 90.4673 13.5563C88.6282 13.5563 87.1527 14.8181 87.1527 16.9724ZM93.8747 11.3325H96.5311V22.6362H93.9198L93.7844 20.9858C93.15 22.3148 91.4011 22.9577 90.1513 22.9817C86.8367 23.0032 84.3822 20.9402 84.3822 16.9748C84.3822 13.0093 86.9484 11.035 90.2179 11.059C91.7172 11.059 93.1476 11.7691 93.782 12.8942L93.8723 11.3349L93.8747 11.3325Z" fill="white"/>
<path fill-rule="evenodd" clip-rule="evenodd" d="M108.728 21.1897C107.433 22.4731 106.071 22.9769 104.413 22.9769C101.165 22.9769 98.4629 21.005 98.4629 16.9916C98.4629 12.9782 101.167 11.0063 104.413 11.0063C106.002 11.0063 107.228 11.4644 108.454 12.6807L106.706 14.5375C106.047 13.9401 105.23 13.6427 104.458 13.6427C102.595 13.6427 101.233 15.0173 101.233 16.9892C101.233 19.1458 102.688 20.2901 104.413 20.2901C105.299 20.2901 106.185 20.0382 106.865 19.3497L108.728 21.1849V21.1897Z" fill="white"/>
<path fill-rule="evenodd" clip-rule="evenodd" d="M112.114 16.9724C112.114 19.1266 113.589 20.4124 115.428 20.4124C119.788 20.4124 119.788 13.5563 115.428 13.5563C113.589 13.5563 112.114 14.8181 112.114 16.9724ZM118.836 11.3325H121.492V22.6362H118.881L118.745 20.9858C118.111 22.3148 116.362 22.9577 115.112 22.9817C111.798 23.0032 109.343 20.9402 109.343 16.9748C109.343 13.0093 111.909 11.035 115.179 11.059C116.678 11.059 118.108 11.7691 118.743 12.8942L118.833 11.3349L118.836 11.3325Z" fill="white"/>
<path fill-rule="evenodd" clip-rule="evenodd" d="M126.083 16.9724C126.083 18.9443 127.492 20.2973 129.262 20.2973C131.032 20.2973 132.51 19.0139 132.51 16.9724C132.51 14.9309 131.011 13.6691 129.262 13.6691C127.513 13.6691 126.083 14.9309 126.083 16.9724ZM135.461 9.40618V22.6362H132.871L132.688 21.0769C131.826 22.4299 130.44 22.8881 129.076 22.8881C125.783 22.8881 123.307 20.6859 123.307 16.9724C123.307 13.0741 125.738 11.0566 129.008 11.0566C130.188 11.0566 132.028 11.6995 132.686 12.8678V6.60904C134.216 6.60904 135.456 7.86128 135.456 9.40618H135.461Z" fill="white"/>
<path fill-rule="evenodd" clip-rule="evenodd" d="M140.118 16.994C140.118 18.714 141.14 20.3189 143.162 20.3189C145.184 20.3189 146.206 18.714 146.206 16.994C146.206 15.2739 145.025 13.6475 143.162 13.6475C141.164 13.6475 140.118 15.2979 140.118 16.994ZM148.998 16.994C148.998 20.2493 146.795 22.8857 143.162 22.8857C139.529 22.8857 137.348 20.2493 137.348 16.994C137.348 13.7386 139.574 11.1022 143.138 11.1022C146.702 11.1022 148.998 13.7602 148.998 16.994Z" fill="white"/>
<path fill-rule="evenodd" clip-rule="evenodd" d="M68.612 6.43631H65.3401L58.2071 22.4899H61.4552L66.9749 9.80679L72.4732 22.4899H75.7451L68.612 6.43631Z" fill="white"/>
<path fill-rule="evenodd" clip-rule="evenodd" d="M47.5432 23.9988C47.5432 12.3473 39.3172 2.63882 28.4109 0.460602L44.269 36.1517C46.3481 32.5869 47.5432 28.4344 47.5432 23.9988Z" fill="#6FBE44"/>
<path fill-rule="evenodd" clip-rule="evenodd" d="M25.5644 35.3097C20.6506 35.3097 19.5362 27.6883 19.5362 27.6883H31.8111L23.7728 9.13989L9.09329 42.8687C13.135 46.0785 18.2317 48 23.7728 48C29.3138 48 34.3725 46.0929 38.4071 42.9047L35.1139 35.3097H25.5644Z" fill="#EA1D25"/>
<path fill-rule="evenodd" clip-rule="evenodd" d="M0 23.9988C0 28.4344 1.19755 32.5869 3.27426 36.1517L19.1323 0.460602C8.22603 2.63882 0 12.3473 0 23.9988Z" fill="#EA1D25"/>
<path fill-rule="evenodd" clip-rule="evenodd" d="M44.2666 36.1517L28.4086 0.460593C26.9093 0.160728 25.3577 0 23.7704 0C22.1832 0 20.6316 0.160728 19.1323 0.460593L3.27426 36.1517C4.78308 38.7426 6.76236 41.0191 9.09094 42.8687L23.7704 9.13989L31.8088 27.6859H19.5339C19.5339 27.6859 20.6482 35.3073 25.562 35.3073H35.1115L38.4048 42.9023C40.7524 41.0479 42.7459 38.757 44.2666 36.1493V36.1517Z" fill="white"/>
</g>
<defs>
<clipPath id="clip0_2_2693">
<rect width="149" height="48" fill="white"/>
</clipPath>
</defs>
</svg>
